HIERARCHY
ROOT Hips
{
	OFFSET 0.00000 0.00000 0.00000
	CHANNELS 6 Xposition Yposition Zposition Zrotation Yrotation Xrotation 
	JOINT LHipJoint
	{
		OFFSET 0 0 0
		CHANNELS 3 Zrotation Yrotation Xrotation
		JOINT LeftUpLeg
		{
			OFFSET 1.73240 -1.89999 0.57994
			CHANNELS 3 Zrotation Yrotation Xrotation
			JOINT LeftLeg
			{
				OFFSET 2.43106 -6.67930 0.00000
				CHANNELS 3 Zrotation Yrotation Xrotation
				JOINT LeftFoot
				{
					OFFSET 2.78854 -7.66147 0.00000
					CHANNELS 3 Zrotation Yrotation Xrotation
					JOINT LeftToeBase
					{
						OFFSET 0.17314 -0.47571 2.01064
						CHANNELS 3 Zrotation Yrotation Xrotation
						End Site
						{
							OFFSET 0.00000 -0.00000 1.04147
						}
					}
				}
			}
		}
	}
	JOINT RHipJoint
	{
		OFFSET 0 0 0
		CHANNELS 3 Zrotation Yrotation Xrotation
		JOINT RightUpLeg
		{
			OFFSET -1.57078 -1.89998 0.57994
			CHANNELS 3 Zrotation Yrotation Xrotation
			JOINT RightLeg
			{
				OFFSET -2.50166 -6.87326 0.00000
				CHANNELS 3 Zrotation Yrotation Xrotation
				JOINT RightFoot
				{
					OFFSET -2.77304 -7.61886 0.00000
					CHANNELS 3 Zrotation Yrotation Xrotation
					JOINT RightToeBase
					{
						OFFSET -0.23513 -0.64602 2.11039
						CHANNELS 3 Zrotation Yrotation Xrotation
						End Site
						{
							OFFSET -0.00000 -0.00000 1.10597
						}
					}
				}
			}
		}
	}
	JOINT LowerBack
	{
		OFFSET 0 0 0
		CHANNELS 3 Zrotation Yrotation Xrotation
		JOINT Spine
		{
			OFFSET -0.00908 2.00015 -0.35323
			CHANNELS 3 Zrotation Yrotation Xrotation
			JOINT Spine1
			{
				OFFSET 0.05647 2.02258 0.04270
				CHANNELS 3 Zrotation Yrotation Xrotation
				JOINT Neck
				{
					OFFSET 0 0 0
					CHANNELS 3 Zrotation Yrotation Xrotation
					JOINT Neck1
					{
						OFFSET -0.02074 1.73711 0.13117
						CHANNELS 3 Zrotation Yrotation Xrotation
						JOINT Head
						{
							OFFSET -0.02359 1.73615 -0.24320
							CHANNELS 3 Zrotation Yrotation Xrotation
							End Site
							{
								OFFSET -0.00579 1.75982 -0.09688
							}
						}
					}
				}
				JOINT LeftShoulder
				{
					OFFSET 0 0 0
					CHANNELS 3 Zrotation Yrotation Xrotation
					JOINT LeftArm
					{
						OFFSET 3.20537 1.11432 -0.27680
						CHANNELS 3 Zrotation Yrotation Xrotation
						JOINT LeftForeArm
						{
							OFFSET 5.05923 -0.00000 -0.00000
							CHANNELS 3 Zrotation Yrotation Xrotation
							JOINT LeftHand
							{
								OFFSET 3.51996 -0.00000 0.00000
								CHANNELS 3 Zrotation Yrotation Xrotation
								JOINT LeftFingerBase
								{
									OFFSET 0 0 0
									CHANNELS 3 Zrotation Yrotation Xrotation
									JOINT LeftHandIndex1
									{
										OFFSET 0.65238 -0.00000 0.00000
										CHANNELS 3 Zrotation Yrotation Xrotation
										End Site
										{
											OFFSET 0.52596 -0.00000 0.00000
										}
									}
								}
								JOINT LThumb
								{
									OFFSET 0 0 0
									CHANNELS 3 Zrotation Yrotation Xrotation
									End Site
									{
										OFFSET 0.53399 -0.00000 0.53399
									}
								}
							}
						}
					}
				}
				JOINT RightShoulder
				{
					OFFSET 0 0 0
					CHANNELS 3 Zrotation Yrotation Xrotation
					JOINT RightArm
					{
						OFFSET -2.96983 1.42602 -0.37449
						CHANNELS 3 Zrotation Yrotation Xrotation
						JOINT RightForeArm
						{
							OFFSET -5.40867 -0.00000 0.00000
							CHANNELS 3 Zrotation Yrotation Xrotation
							JOINT RightHand
							{
								OFFSET -3.12964 -0.00000 0.00000
								CHANNELS 3 Zrotation Yrotation Xrotation
								JOINT RightFingerBase
								{
									OFFSET 0 0 0
									CHANNELS 3 Zrotation Yrotation Xrotation
									JOINT RightHandIndex1
									{
										OFFSET -0.83271 -0.00000 0.00000
										CHANNELS 3 Zrotation Yrotation Xrotation
										End Site
										{
											OFFSET -0.67135 -0.00000 0.00000
										}
									}
								}
								JOINT RThumb
								{
									OFFSET 0 0 0
									CHANNELS 3 Zrotation Yrotation Xrotation
									End Site
									{
										OFFSET -0.68160 -0.00000 0.68160
									}
								}
							}
						}
					}
				}
			}
		}
	}
}
MOTION
Frames: 16
Frame Time: .0083333
2.2791 17.5149 -33.5891 0 0 0 0 0 0 -21 0 0 0 0 0 0 0 0 0 0 0 0 0 0 21 0 0 0 0 0 0 0 0 0 0 0 0 0 0 0 0 0 0 0 0 0 0 -16 0 0 21 0 0 11 0 0 0 -8 0 0 0 0 0 0 0 0 0 0 0 0 0 0 0 0 0 0 0 0 8 0 0 0 0 0 0 0 0 0 0 0 0 0 0 0 0 0
2.2791 17.5149 -33.5891 -1.9669 -6.0610 -5.3321 0.0000 0.0000 0.0000 -12.0612 -6.5151 -12.1231 5.5503 13.9779 43.1491 0.8818 -1.5308 -17.2941 1.0106 -6.3963 -17.9388 0.0000 0.0000 0.0000 26.6701 0.7927 -4.8141 -2.9354 -10.5897 30.9084 -1.2051 -7.9069 -24.9910 -0.7083 -5.3788 14.9922 0.6022 -0.1501 19.4809 3.4576 0.3336 -0.3234 3.3925 0.2433 -11.3627 -3.1130 -2.4302 -11.6831 -2.1424 -2.3135 18.7461 -0.4214 -1.5318 7.7248 0.0000 -0.0000 0.0000 -79.5376 17.8073 26.7445 36.4197 -45.7997 -15.8227 -0.0000 0.0000 -0.0835 7.8389 57.6460 6.6338 -7.1250 0.0000 -0.0000 -85.5016 74.8808 -69.7191 0.0000 -0.0000 0.0000 67.6378 3.1585 -43.8665 -50.4857 53.1895 -26.5625 0.0000 -0.0000 -75.9621 -18.9975 -4.5578 1.5671 7.1250 -0.0000 -0.0000 6.3357 -34.7439 1.6035
2.2700 17.5148 -33.5862 -1.9315 -6.0871 -5.3730 0.0000 0.0000 0.0000 -11.9998 -6.3502 -12.5834 5.6057 14.0350 43.3780 0.8779 -1.6192 -17.2332 1.0986 -6.6602 -18.7124 0.0000 0.0000 0.0000 26.7098 0.8727 -4.6607 -2.9090 -10.5462 30.7642 -1.2045 -7.8681 -24.9584 -0.7153 -5.4050 15.0673 0.5027 -0.1733 19.6822 3.6006 0.2935 -0.1102 3.6192 0.2322 -11.2357 -3.6722 -2.5536 -12.3014 -1.9143 -2.3815 18.9851 -0.2728 -1.5872 7.9281 0.0000 0.0000 0.0000 -79.9528 17.3956 26.8780 35.9965 -45.5107 -15.5200 -0.0000 0.0000 -1.9509 12.5602 51.9363 9.9493 -7.1250 0.0000 -0.0000 -62.5437 75.5941 -48.7056 0.0000 0.0000 0.0000 67.3793 3.5937 -43.7975 -50.3798 53.1475 -26.4777 0.0000 -0.0000 -76.0560 -18.7883 -5.1927 1.7636 7.1250 -0.0000 -0.0000 6.5765 -35.4002 1.5595
2.2581 17.5144 -33.5949 -2.6341 -6.1406 -5.1706 0.0000 0.0000 0.0000 -10.9777 -6.3367 -13.3061 5.6477 14.0780 43.5510 0.8533 -2.2018 -16.8498 0.8817 -5.9860 -16.7437 0.0000 0.0000 0.0000 27.6345 1.2149 -4.6022 -2.8574 -10.4606 30.4815 -1.1620 -8.2475 -24.8991 -0.7286 -5.4539 15.2078 0.7298 -0.4516 19.9600 4.0975 0.0802 -1.0069 4.1500 0.1612 -12.4080 -4.0506 -1.9340 -9.0675 -1.9957 -1.6299 18.3719 -0.1184 -1.2423 7.1467 -0.0000 0.0000 0.0000 -80.7003 19.6191 26.7567 35.8985 -45.4432 -15.4501 -0.0000 0.0000 -3.6436 15.6855 55.3102 13.0017 -7.1250 0.0000 -0.0000 -75.6397 77.6140 -63.0472 -0.0000 0.0000 0.0000 66.9460 2.0641 -42.2657 -50.3616 53.1403 -26.4632 0.0000 -0.0000 -76.3416 -18.6089 -5.6296 1.8918 7.1250 -0.0000 -0.0000 6.7754 -35.8488 1.5327
2.2582 17.5261 -33.5645 -2.1458 -6.1551 -5.4249 0.0000 0.0000 0.0000 -11.5476 -6.3012 -13.2591 5.6477 14.0781 43.5511 0.8871 -2.7047 -17.0909 0.6280 -5.0707 -14.1104 0.0000 0.0000 0.0000 27.0181 0.8935 -4.1990 -2.8228 -10.4025 30.2902 -1.1860 -7.9615 -24.8799 -0.7477 -5.5232 15.4070 0.7832 -0.1247 19.6668 3.6340 0.4305 -0.2263 3.4586 0.2838 -11.3651 -3.1126 -2.2245 -11.0804 -2.2398 -2.0435 18.4260 -0.4150 -1.4051 7.5096 -0.0000 0.0000 0.0000 -79.8281 17.9000 27.8706 35.6209 -45.2505 -15.2527 -0.0000 0.0000 -4.2351 16.8079 56.0321 14.0643 -7.1250 0.0000 -0.0000 -79.0971 78.0858 -66.9152 -0.0000 0.0000 0.0000 67.6041 3.0748 -43.8569 -50.3384 53.1311 -26.4446 0.0000 -0.0000 -76.0694 -19.0130 -4.9207 1.6930 7.1250 -0.0000 -0.0000 6.3610 -35.1255 1.5506
2.2533 17.5293 -33.5581 -2.4028 -6.2228 -5.3637 0.0000 0.0000 0.0000 -11.1814 -6.1486 -13.8193 5.6523 14.0827 43.5697 0.8580 -2.6485 -16.8085 0.7964 -5.6963 -15.9059 0.0000 0.0000 0.0000 27.3512 0.9519 -4.0846 -2.7882 -10.3440 30.0980 -1.1503 -8.3729 -24.8990 -0.6407 -5.1211 14.2542 1.2541 -0.1265 19.5549 3.6773 0.5082 0.4480 3.1932 0.2845 -10.5431 -3.2468 -2.0333 -13.6276 -2.0151 -1.6633 19.1468 -0.3173 -1.2318 8.2084 0.0000 -0.0000 0.0000 -79.8763 16.4545 27.6534 35.6777 -45.2900 -15.2930 -0.0000 0.0000 -3.6414 15.6822 56.4898 13.1750 -7.1250 0.0000 -0.0000 -81.0881 77.6769 -68.4251 0.0000 -0.0000 0.0000 67.6897 4.6274 -44.6568 -50.1443 53.0535 -26.2894 0.0000 -0.0000 -75.6586 -19.2811 -4.1200 1.4397 7.1250 -0.0000 -0.0000 6.0589 -34.2954 1.5991
2.2519 17.5311 -33.5441 -2.3241 -6.2032 -5.3806 0.0000 0.0000 0.0000 -11.2656 -6.0491 -14.1338 5.6000 14.0292 43.3544 0.8362 -2.3172 -16.6498 1.0871 -6.6263 -18.6130 0.0000 0.0000 0.0000 27.2647 0.8380 -4.0085 -2.7719 -10.3162 30.0070 -1.1861 -7.9511 -24.8734 -0.6917 -5.3169 14.8146 1.3402 0.0123 19.3262 3.5747 0.6742 0.8556 2.9701 0.3504 -9.9647 -2.4852 -2.3511 -14.2290 -2.5908 -2.1416 18.4862 -0.6879 -1.4544 8.0799 -0.0000 0.0000 0.0000 -79.5585 15.6370 27.8504 36.0135 -45.5224 -15.5321 -0.0000 0.0000 -2.2845 11.2682 56.9228 9.4783 -7.1250 0.0000 -0.0000 -82.6345 76.0826 -68.1953 -0.0000 0.0000 0.0000 67.9692 5.2743 -45.5517 -50.2035 53.0773 -26.3368 0.0000 -0.0000 -75.4698 -19.2967 -4.0448 1.4148 7.1250 -0.0000 -0.0000 6.0390 -34.2168 1.6053
2.2506 17.5354 -33.5263 -2.1911 -6.0687 -5.3336 0.0000 0.0000 0.0000 -11.3929 -6.2040 -14.3933 5.5369 13.9640 43.0935 0.8808 -2.6895 -17.0309 1.3010 -7.2260 -20.3866 0.0000 0.0000 0.0000 27.0977 0.7066 -4.0017 -2.7534 -10.2848 29.9040 -1.1635 -8.2745 -24.9307 -0.6998 -5.3473 14.9019 1.2686 -0.0211 20.0144 3.5155 0.6556 0.3142 2.9741 0.3513 -10.9560 -2.8488 -2.5206 -13.7501 -2.1737 -2.3880 19.1494 -0.5177 -1.5622 8.2263 -0.0000 -0.0000 0.0000 -79.4427 16.7049 28.5155 35.7713 -45.3551 -15.3596 -0.0000 0.0000 -4.6523 17.1852 50.5749 13.4359 -7.1250 0.0000 -0.0000 -54.5955 76.8538 -42.9999 -0.0000 -0.0000 0.0000 68.0999 4.4537 -45.4612 -50.2771 53.1067 -26.3956 0.0000 -0.0000 -75.5643 -19.2496 -4.1845 1.4596 7.1250 -0.0000 -0.0000 6.0910 -34.3619 1.5977
2.2498 17.5415 -33.5086 -2.0658 -5.9862 -5.2297 0.0000 0.0000 0.0000 -11.5004 -6.3703 -14.6473 5.4481 13.8713 42.7245 0.8558 -2.9284 -16.7371 1.1095 -6.6921 -18.8065 0.0000 0.0000 0.0000 26.9468 0.6404 -4.0182 -2.7351 -10.2533 29.8009 -1.1641 -8.1704 -24.8588 -0.6840 -5.2877 14.7309 1.1947 -0.0534 19.8181 3.5029 0.5876 0.3172 3.0188 0.3223 -10.8396 -2.8748 -2.4790 -13.5520 -2.1787 -2.3326 19.1239 -0.5057 -1.5374 8.1823 -0.0000 -0.0000 0.0000 -79.5516 16.7309 28.0117 36.2694 -45.6976 -15.7150 -0.0000 0.0000 -2.2439 12.5524 49.7354 9.6425 -7.1250 0.0000 -0.0000 -54.9022 74.6492 -41.0989 -0.0000 -0.0000 0.0000 68.1148 4.5468 -45.6850 -50.1776 53.0669 -26.3161 0.0000 -0.0000 -75.3786 -19.0451 -4.3836 1.5114 7.1250 -0.0000 -0.0000 6.2787 -34.5629 1.6167
2.2512 17.5492 -33.4937 -1.9898 -5.9227 -5.2484 0.0000 0.0000 0.0000 -11.5961 -6.4828 -14.8008 5.3485 13.7658 42.3073 0.8223 -2.8819 -16.4025 0.9988 -6.3599 -17.8323 0.0000 0.0000 0.0000 26.8404 0.5374 -3.8732 -2.7067 -10.2043 29.6409 -1.1558 -8.3228 -24.9057 -0.6704 -5.2361 14.5831 1.1704 -0.1360 19.9039 3.5452 0.4806 0.3095 3.1125 0.2750 -10.8924 -2.9499 -2.3012 -13.4913 -2.2435 -2.0586 19.1519 -0.4842 -1.4200 8.1808 -0.0000 0.0000 0.0000 -79.8254 16.8575 27.9089 36.3376 -45.7440 -15.7638 -0.0000 0.0000 -2.1850 11.2831 52.9386 9.0461 -7.1250 0.0000 -0.0000 -66.8890 75.4371 -52.4546 -0.0000 0.0000 0.0000 68.0130 4.4588 -45.3484 -50.1342 53.0495 -26.2813 0.0000 -0.0000 -75.5799 -19.2406 -4.2428 1.4792 7.1250 -0.0000 -0.0000 6.1041 -34.4229 1.5921
2.2530 17.5601 -33.4688 -1.9628 -6.2104 -5.1140 0.0000 0.0000 0.0000 -11.5776 -6.2649 -15.1036 5.2340 13.6426 41.8241 0.8529 -2.8659 -16.7181 0.9674 -6.2622 -17.5471 0.0000 0.0000 0.0000 26.8120 0.7192 -3.7494 -2.6736 -10.1470 29.4540 -1.1894 -8.0112 -24.9426 -0.7385 -5.4901 15.3118 0.6864 -0.5023 19.3257 3.9866 -0.0547 -0.4395 4.0478 0.0764 -11.3868 -3.8725 -1.7691 -9.0714 -2.3104 -1.3884 17.7200 -0.2234 -1.1284 6.9299 -0.0000 -0.0000 0.0000 -81.2267 19.4313 26.4667 36.9044 -46.1251 -16.1711 -0.0000 0.0000 -1.6571 11.3211 52.0694 8.9735 -7.1250 0.0000 -0.0000 -63.6900 75.1672 -49.2734 -0.0000 -0.0000 0.0000 67.2938 2.9935 -42.8107 -50.1387 53.0513 -26.2850 0.0000 -0.0000 -76.0438 -19.4206 -4.2122 1.4834 7.1250 -0.0000 -0.0000 5.9536 -34.3980 1.5561
2.2498 17.5671 -33.4568 -2.0063 -6.2416 -5.0884 0.0000 0.0000 0.0000 -11.4714 -6.2277 -15.3568 5.1128 13.5097 41.3077 0.8386 -2.8554 -16.5741 0.9341 -6.1566 -17.2393 0.0000 0.0000 0.0000 26.9103 0.8477 -3.5507 -2.6406 -10.0891 29.2659 -1.1937 -8.1248 -25.0580 -0.7738 -5.6166 15.6759 0.8614 -0.4246 19.9751 3.9501 0.1037 -0.3844 3.8772 0.1427 -11.7042 -3.8538 -1.9586 -10.5994 -2.3200 -1.5479 18.4414 -0.2659 -1.2259 7.4372 -0.0000 0.0000 0.0000 -81.1275 19.2097 26.8280 36.8855 -46.1125 -16.1574 -0.0000 0.0000 -2.6645 13.0367 53.5268 10.5472 -7.1250 0.0000 -0.0000 -68.4696 76.2719 -54.8150 -0.0000 0.0000 0.0000 67.4252 3.2849 -43.2348 -50.0540 53.0172 -26.2173 0.0000 -0.0000 -76.0002 -19.3807 -3.9213 1.3781 7.1250 -0.0000 -0.0000 5.9585 -34.0899 1.6022
2.2559 17.5752 -33.4243 -1.7725 -6.4606 -5.0423 0.0000 0.0000 0.0000 -11.7605 -6.0793 -15.5005 4.9722 13.3525 40.7027 0.8218 -2.3767 -16.4895 1.0195 -6.4235 -18.0182 0.0000 0.0000 0.0000 26.6055 0.8879 -3.3836 -2.6125 -10.0397 29.1053 -1.2097 -7.9189 -25.0351 -0.7853 -5.6574 15.7934 0.7127 -0.3509 19.9210 3.8894 0.1638 -0.5400 3.8808 0.1808 -11.8542 -3.8234 -1.9145 -10.0559 -2.3961 -1.5105 18.3519 -0.2854 -1.2086 7.3099 -0.0000 -0.0000 0.0000 -81.1659 19.7288 26.7726 36.9562 -46.1595 -16.2084 -0.0000 0.0000 -2.3983 12.0834 55.1406 9.9631 -7.1250 0.0000 -0.0000 -75.2719 76.2338 -61.1766 -0.0000 -0.0000 0.0000 67.4597 3.0365 -43.2784 -50.0273 53.0065 -26.1960 0.0000 -0.0000 -75.9972 -19.4134 -3.6816 1.2963 7.1250 -0.0000 -0.0000 5.9095 -33.8386 1.6251
2.2597 17.5777 -33.4096 -1.7740 -6.2796 -5.0268 0.0000 0.0000 0.0000 -11.7823 -6.2101 -15.6785 4.8271 13.1863 40.0701 0.8075 -1.9946 -16.4203 0.9854 -6.3184 -17.7112 0.0000 0.0000 0.0000 26.5891 0.7704 -3.2740 -2.5853 -9.9913 28.9487 -1.2166 -7.9379 -25.1024 -0.8167 -5.7667 16.1090 0.8596 -0.4029 19.9312 3.8728 0.1173 -0.2841 3.7825 0.1438 -11.5653 -3.7416 -1.9341 -10.9616 -2.4869 -1.4803 18.5216 -0.3370 -1.2045 7.5255 -0.0000 0.0000 0.0000 -81.1567 19.1209 26.7265 36.7907 -46.0493 -16.0892 -0.0000 0.0000 -2.2909 11.5169 55.7149 9.5564 -7.1250 0.0000 -0.0000 -77.6975 76.0956 -63.3606 -0.0000 0.0000 0.0000 67.4936 3.6779 -43.8221 -49.9438 52.9728 -26.1293 0.0000 -0.0000 -75.8470 -19.3655 -3.8935 1.3672 7.1250 -0.0000 -0.0000 5.9683 -34.0601 1.6092
2.2633 17.5804 -33.3920 -1.8667 -6.2987 -4.9906 0.0000 0.0000 0.0000 -11.6713 -6.2763 -15.8243 4.6662 12.9978 39.3601 0.7942 -1.6247 -16.3654 0.9888 -6.3290 -17.7420 0.0000 0.0000 0.0000 26.6853 0.8046 -3.1421 -2.5568 -9.9405 28.7844 -1.2083 -7.9968 -25.0798 -0.8444 -5.8612 16.3822 0.9710 -0.4455 20.2984 3.9185 0.1165 -0.5552 3.7904 0.1468 -12.0842 -3.7678 -1.9477 -10.6479 -2.6596 -1.4660 18.9943 -0.3888 -1.2237 7.6246 0.0000 -0.0000 0.0000 -81.2202 19.6493 26.6260 36.7356 -46.0124 -16.0495 -0.0000 0.0000 -1.8307 10.9871 54.9280 9.0285 -7.1250 0.0000 -0.0000 -74.6382 75.7910 -60.0775 0.0000 -0.0000 0.0000 67.4977 3.2255 -43.5974 -50.0341 53.0092 -26.2014 0.0000 -0.0000 -75.8155 -19.2738 -4.1301 1.4427 7.1250 -0.0000 -0.0000 6.0659 -34.3056 1.5994
2.2665 17.5863 -33.3686 -1.9445 -6.3607 -4.9651 0.0000 0.0000 0.0000 -11.5877 -6.3865 -15.8949 4.5047 12.8033 38.6367 0.7975 -1.2321 -16.5015 1.0292 -6.4530 -18.1046 0.0000 0.0000 0.0000 26.7650 0.8320 -2.9502 -2.5182 -9.8710 28.5599 -1.1959 -8.0715 -25.0367 -0.8334 -5.8238 16.2740 1.0317 -0.4910 19.6798 3.9715 0.0530 -0.5080 3.8143 0.1099 -11.6735 -3.5502 -1.7762 -9.2122 -2.9020 -1.3226 18.1744 -0.4671 -1.1365 7.0952 0.0000 -0.0000 0.0000 -81.2946 19.9133 26.4322 36.6740 -45.9711 -16.0052 -0.0000 0.0000 -1.3289 11.0606 50.3352 8.5575 -7.1250 0.0000 -0.0000 -57.9180 74.3669 -43.3750 0.0000 -0.0000 0.0000 67.4827 2.9385 -43.3291 -50.1235 53.0452 -26.2728 0.0000 -0.0000 -75.9745 -19.1581 -4.3974 1.5259 7.1250 -0.0000 -0.0000 6.1872 -34.5821 1.5900
